<svg xmlns="http://www.w3.org/2000/svg" xmlns:xlink="http://www.w3.org/1999/xlink"><symbol id="conglomerate__decorative-icons">
  <!-- Иконка "Дом" -->
  <symbol id="icon-home" viewBox="0 0 22 24">
    <path fill-rule="evenodd" clip-rule="evenodd" d="M10.3247 0.229798C10.7219 -0.0765992 11.2781 -0.0765992 11.6753 0.229798L21.5753 7.86616C21.8433 8.07284 22 8.39063 22 8.72727V20.7273C22 21.5953 21.6523 22.4277 21.0335 23.0414C20.4146 23.6552 19.5752 24 18.7 24H3.3C2.42479 24 1.58542 23.6552 0.966548 23.0414C0.347678 22.4277 0 21.5953 0 20.7273V8.72727C0 8.39063 0.15672 8.07284 0.424665 7.86616L10.3247 0.229798ZM8.8 21.8182H13.2V13.0909H8.8V21.8182ZM15.4 21.8182V12C15.4 11.3975 14.9075 10.9091 14.3 10.9091H7.7C7.09249 10.9091 6.6 11.3975 6.6 12V21.8182H3.3C3.00826 21.8182 2.72847 21.7032 2.52218 21.4987C2.31589 21.2941 2.2 21.0166 2.2 20.7273V9.26082L11 2.47294L19.8 9.26082V20.7273C19.8 21.0166 19.6841 21.2941 19.4778 21.4987C19.2715 21.7032 18.9917 21.8182 18.7 21.8182H15.4Z" fill="#222"/>
  </symbol>
  <!-- Иконка "Добавить" -->
  <symbol id="icon-plus" viewBox="0 0 24 24">
    <path fill-rule="evenodd" clip-rule="evenodd" d="M3.6 2.4C2.93726 2.4 2.4 2.93726 2.4 3.6V20.4C2.4 21.0627 2.93726 21.6 3.6 21.6H20.4C21.0627 21.6 21.6 21.0627 21.6 20.4V3.6C21.6 2.93726 21.0627 2.4 20.4 2.4H3.6ZM0 3.6C0 1.61177 1.61177 0 3.6 0H20.4C22.3882 0 24 1.61178 24 3.6V20.4C24 22.3882 22.3882 24 20.4 24H3.6C1.61178 24 0 22.3882 0 20.4V3.6ZM12 5.7088C12.6627 5.7088 13.2 6.24606 13.2 6.9088V10.8H17.0912C17.7539 10.8 18.2912 11.3372 18.2912 12C18.2912 12.6627 17.7539 13.2 17.0912 13.2H13.2V17.0911C13.2 17.7539 12.6627 18.2911 12 18.2911C11.3372 18.2911 10.8 17.7539 10.8 17.0911V13.2H6.90881C6.24607 13.2 5.70882 12.6627 5.70882 12C5.70882 11.3372 6.24607 10.8 6.90881 10.8H10.8V6.9088C10.8 6.24606 11.3372 5.7088 12 5.7088Z" fill="#222"/>
  </symbol>
  <!-- Иконка "Профиль" -->
  <symbol id="icon-profile" viewBox="0 0 20 24">
    <path fill-rule="evenodd" clip-rule="evenodd" d="M10 2.4C8.05076 2.4 6.47059 4.01177 6.47059 6C6.47059 7.98823 8.05076 9.6 10 9.6C11.9492 9.6 13.5294 7.98823 13.5294 6C13.5294 4.01177 11.9492 2.4 10 2.4ZM4.11765 6C4.11765 2.68629 6.75127 0 10 0C13.2487 0 15.8824 2.68629 15.8824 6C15.8824 9.31371 13.2487 12 10 12C6.75127 12 4.11765 9.31371 4.11765 6ZM1.7229 16.1574C2.82606 15.0321 4.32226 14.4 5.88235 14.4H14.1176C15.6777 14.4 17.1739 15.0321 18.2771 16.1574C19.3803 17.2826 20 18.8087 20 20.4V22.8C20 23.4627 19.4733 24 18.8235 24C18.1738 24 17.6471 23.4627 17.6471 22.8V20.4C17.6471 19.4452 17.2752 18.5295 16.6133 17.8544C15.9514 17.1793 15.0537 16.8 14.1176 16.8H5.88235C4.9463 16.8 4.04858 17.1793 3.38668 17.8544C2.72479 18.5295 2.35294 19.4452 2.35294 20.4V22.8C2.35294 23.4627 1.82622 24 1.17647 24C0.526724 24 0 23.4627 0 22.8V20.4C0 18.8087 0.619746 17.2826 1.7229 16.1574Z" fill="#222"/>
  </symbol>
</symbol></svg>